# Blender 4.0.1
# www.blender.org
mtllib piston.mtl
o head
v 0.000000 1.000000 -1.000000
v 0.000000 1.573479 -1.000000
v -0.000000 1.104617 0.988797
v 0.147766 1.360504 -0.960406
v 0.866025 1.573479 -0.500000
v 1.000000 0.500000 0.000000
v 1.000000 1.573479 0.000000
v 0.866025 1.573479 0.500000
v 0.147766 1.360504 0.960406
v 0.000000 1.445800 1.000000
v -0.147766 1.360504 0.960406
v -0.866025 1.573479 0.500000
v -1.000000 0.500000 0.000000
v -1.000000 1.573479 0.000000
v -0.866025 1.573479 -0.500000
v -0.147766 1.360504 -0.960406
v 0.147766 1.189913 -0.954805
v 0.866025 0.500000 -0.500000
v 0.866025 0.500000 0.500000
v 0.147766 1.189913 0.954805
v -0.147766 1.189913 0.954805
v -0.866025 0.500000 0.500000
v -0.866025 0.500000 -0.500000
v -0.147766 1.189913 -0.954805
v 0.000000 1.445800 -1.000000
v 0.500000 1.573479 -0.866025
v 0.500000 1.573479 0.866025
v 0.000000 1.573479 1.000000
v -0.500000 1.573479 0.866025
v -0.500000 1.573479 -0.866025
v 0.500000 0.866025 -0.866025
v 0.000000 1.000000 1.000000
v -0.500000 0.866025 0.866025
v -0.500000 0.866025 -0.866025
v 0.500000 0.866025 0.866025
v -0.000000 1.104617 -0.988797
v 0.000000 2.122564 -0.730734
v 0.365367 2.122564 -0.632834
v 0.632834 2.122564 -0.365367
v 0.730734 2.122564 0.000000
v 0.632834 2.122564 0.365367
v 0.365367 2.122564 0.632834
v 0.000000 2.122564 0.730734
v -0.365367 2.122564 0.632834
v -0.632834 2.122564 0.365367
v -0.730734 2.122564 0.000000
v -0.632834 2.122564 -0.365367
v -0.365367 2.122564 -0.632834
v 0.000000 2.122564 -1.000000
v 0.500000 2.122564 -0.866025
v 0.866025 2.122564 -0.500000
v 1.000000 2.122564 0.000000
v 0.866025 2.122564 0.500000
v 0.500000 2.122564 0.866025
v 0.000000 2.122564 1.000000
v -0.500000 2.122564 0.866025
v -0.866025 2.122564 0.500000
v -1.000000 2.122564 0.000000
v -0.866025 2.122564 -0.500000
v -0.500000 2.122564 -0.866025
v 0.377312 2.122564 -0.011945
v 0.011945 2.122564 -0.377312
v -0.011945 2.122564 0.377312
v -0.377312 2.122564 0.011945
v 0.147766 1.367068 0.760514
v 0.000000 1.452364 0.800108
v -0.147766 1.367068 0.760514
v -0.000000 1.111181 0.788904
v -0.147766 1.196476 0.754912
v 0.147766 1.196476 0.754912
v -0.000000 1.452364 -0.800108
v 0.147766 1.367068 -0.760514
v -0.147766 1.367068 -0.760514
v 0.147766 1.196476 -0.754912
v -0.147766 1.196476 -0.754912
v -0.000000 1.111181 -0.788904
vn 1.0000 -0.0000 -0.0000
vn 0.7071 -0.0000 -0.7071
vn 0.9659 -0.0000 -0.2588
vn 0.9659 -0.0000 0.2588
vn 0.7071 -0.0000 0.7071
vn -0.7071 -0.0000 0.7071
vn -0.9659 -0.0000 0.2588
vn -0.9659 -0.0000 -0.2588
vn -0.7071 -0.0000 -0.7071
vn -0.2588 -0.9659 -0.0000
vn -0.7071 -0.7071 -0.0000
vn -0.0000 -1.0000 -0.0000
vn 0.7071 -0.7071 -0.0000
vn 0.2588 -0.9659 -0.0000
vn 0.2588 -0.0000 -0.9659
vn 0.2588 -0.0000 0.9659
vn -0.2588 -0.0000 0.9659
vn -0.2588 -0.0000 -0.9659
vn 0.2507 -0.0062 -0.9680
vn -0.2532 0.0331 0.9668
vn -0.2507 -0.0062 -0.9680
vn 0.2507 -0.0062 0.9680
vn -0.2507 -0.0062 0.9680
vn 0.2532 0.0331 -0.9669
vn 0.2532 0.0331 0.9668
vn -0.2532 0.0331 -0.9669
vn 0.5054 -0.8624 0.0283
vn -0.0000 1.0000 -0.0000
vn 0.4948 0.8685 0.0285
vn -1.0000 -0.0000 -0.0000
vn -0.2415 -0.0318 0.9699
vn 0.2415 -0.0318 0.9699
vn -0.5054 -0.8624 -0.0283
vn -0.4948 0.8685 0.0285
vn 0.5054 -0.8624 -0.0283
vn -0.2415 -0.0318 -0.9699
vn 0.2415 -0.0318 -0.9699
vn 0.4948 0.8685 -0.0285
vn -0.5054 -0.8624 0.0283
vn -0.4948 0.8685 -0.0285
vt 0.036549 0.810357
vt 0.036549 0.927347
vt 0.916667 1.000000
vt 0.833333 1.000000
vt 0.833333 0.625000
vt 0.916667 0.716506
vt 0.750000 1.000000
vt 0.750000 0.500000
vt 0.666667 1.000000
vt 0.666667 0.625000
vt 0.583333 1.000000
vt 0.583333 0.716506
vt 0.416667 0.716506
vt 0.416667 1.000000
vt 0.333333 1.000000
vt 0.333333 0.625000
vt 0.250000 1.000000
vt 0.250000 0.500000
vt 0.166667 1.000000
vt 0.166667 0.625000
vt 0.083333 1.000000
vt 0.083333 0.716506
vt 1.000000 0.500000
vt 0.916667 0.533494
vt 0.916667 0.966506
vt 1.000000 1.000000
vt 0.833333 0.875000
vt 0.750000 0.750000
vt 0.166667 0.875000
vt 0.250000 0.750000
vt 0.083333 0.966506
vt 0.083333 0.533494
vt 0.000000 0.500000
vt 0.000000 1.000000
vt 0.963451 0.887492
vt 1.000000 0.854694
vt 0.500000 0.927347
vt 0.536549 0.927347
vt 0.500000 1.000000
vt 0.463452 0.927347
vt 0.000000 0.927347
vt 0.963452 0.705269
vt 0.500834 0.824711
vt 0.463452 0.810357
vt 0.500000 0.750000
vt 0.536549 0.810357
vt 0.999166 0.651092
vt 0.000834 0.824711
vt 0.000000 0.750000
vt 0.401880 0.337688
vt 0.322024 0.250000
vt 0.401880 0.162312
vt 0.425376 0.250000
vt 0.250000 0.425376
vt 0.337688 0.401880
vt 0.370000 0.457846
vt 0.250000 0.490000
vt 0.457846 0.370000
vt 0.490000 0.250000
vt 0.457846 0.130000
vt 0.337688 0.098120
vt 0.370000 0.042154
vt 0.250000 0.074624
vt 0.250000 0.010000
vt 0.162312 0.098120
vt 0.130000 0.042154
vt 0.098120 0.162312
vt 0.042154 0.130000
vt 0.074624 0.250000
vt 0.010000 0.250000
vt 0.098120 0.337688
vt 0.042154 0.370000
vt 0.162312 0.401880
vt 0.130000 0.457846
vt 0.250000 0.177976
vt 0.250000 0.322024
vt 0.177976 0.250000
s 0
f 24/1/1 16/2/1 73/2/1 75/1/1
f 26/3/2 5/4/2 18/5/2 31/6/2
f 18/5/3 5/4/3 7/7/3 6/8/3
f 8/9/4 19/10/4 6/8/4 7/7/4
f 19/10/5 8/9/5 27/11/5 35/12/5
f 33/13/6 29/14/6 12/15/6 22/16/6
f 14/17/7 13/18/7 22/16/7 12/15/7
f 13/18/8 14/17/8 15/19/8 23/20/8
f 15/19/8 14/17/8 58/17/8 59/19/8
f 15/19/9 30/21/9 34/22/9 23/20/9
f 1/23/10 31/24/10 35/25/10 32/26/10
f 31/24/11 18/5/11 19/27/11 35/25/11
f 6/28/12 19/27/12 18/5/12
f 22/29/12 13/30/12 23/20/12
f 33/31/13 22/29/13 23/20/13 34/32/13
f 1/33/14 32/34/14 33/31/14 34/32/14
f 4/35/15 25/36/15 2/26/15 26/3/15
f 10/37/16 9/38/16 27/11/16 28/39/16
f 11/40/17 10/37/17 28/39/17 29/14/17
f 25/41/18 16/2/18 30/21/18 2/34/18
f 17/42/19 4/35/19 26/3/19 31/6/19
f 3/43/20 21/44/20 33/13/20 32/45/20
f 16/2/21 24/1/21 34/22/21 30/21/21
f 9/38/22 20/46/22 35/12/22 27/11/22
f 21/44/23 11/40/23 29/14/23 33/13/23
f 36/47/24 17/42/24 31/6/24 1/23/24
f 20/46/25 3/43/25 32/45/25 35/12/25
f 24/1/26 36/48/26 1/49/26 34/22/26
f 16/2/27 25/41/27 71/41/27 73/2/27
f 39/50/28 61/51/28 41/52/28 40/53/28
f 29/14/17 28/39/17 55/39/17 56/14/17
f 8/9/4 7/7/4 52/7/4 53/9/4
f 2/34/18 30/21/18 60/21/18 49/34/18
f 26/3/15 2/26/15 49/26/15 50/3/15
f 30/21/9 15/19/9 59/19/9 60/21/9
f 12/15/6 29/14/6 56/14/6 57/15/6
f 27/11/5 8/9/5 53/9/5 54/11/5
f 5/4/2 26/3/2 50/3/2 51/4/2
f 14/17/7 12/15/7 57/15/7 58/17/7
f 28/39/16 27/11/16 54/11/16 55/39/16
f 7/7/3 5/4/3 51/4/3 52/7/3
f 37/54/28 38/55/28 50/56/28 49/57/28
f 38/55/28 39/50/28 51/58/28 50/56/28
f 39/50/28 40/53/28 52/59/28 51/58/28
f 40/53/28 41/52/28 53/60/28 52/59/28
f 41/52/28 42/61/28 54/62/28 53/60/28
f 42/61/28 43/63/28 55/64/28 54/62/28
f 43/63/28 44/65/28 56/66/28 55/64/28
f 44/65/28 45/67/28 57/68/28 56/66/28
f 45/67/28 46/69/28 58/70/28 57/68/28
f 46/69/28 47/71/28 59/72/28 58/70/28
f 48/73/28 37/54/28 49/57/28 60/74/28
f 47/71/28 48/73/28 60/74/28 59/72/28
f 61/51/28 63/75/28 42/61/28 41/52/28
f 63/75/28 44/65/28 43/63/28 42/61/28
f 38/55/28 62/76/28 61/51/28 39/50/28
f 62/76/28 64/77/28 63/75/28 61/51/28
f 64/77/28 45/67/28 44/65/28 63/75/28
f 37/54/28 48/73/28 62/76/28 38/55/28
f 48/73/28 47/71/28 64/77/28 62/76/28
f 47/71/28 46/69/28 45/67/28 64/77/28
f 21/44/29 3/43/29 68/43/29 69/44/29
f 20/46/30 9/38/30 65/38/30 70/46/30
f 67/40/31 69/44/31 68/43/31 66/37/31
f 65/38/32 66/37/32 68/43/32 70/46/32
f 9/38/33 10/37/33 66/37/33 65/38/33
f 3/43/34 20/46/34 70/46/34 68/43/34
f 11/40/1 21/44/1 69/44/1 67/40/1
f 10/37/35 11/40/35 67/40/35 66/37/35
f 73/2/36 71/36/36 76/48/36 75/1/36
f 72/35/37 74/42/37 76/47/37 71/36/37
f 4/35/30 17/42/30 74/42/30 72/35/30
f 36/48/38 24/1/38 75/1/38 76/48/38
f 25/36/39 4/35/39 72/35/39 71/36/39
f 17/42/40 36/47/40 76/47/40 74/42/40
o shaft
v -0.282758 -0.449177 0.282758
v -0.282758 1.098628 0.282758
v -0.282758 -0.449177 -0.282758
v -0.282758 1.098628 -0.282758
v 0.282758 -0.449177 0.282758
v 0.282758 1.098628 0.282758
v 0.282758 -0.449177 -0.282758
v 0.282758 1.098628 -0.282758
v -0.379843 -0.956687 -0.282758
v -0.379843 -0.956687 0.282758
v 0.379843 -0.956687 -0.282758
v 0.379843 -0.956687 0.282758
v -0.379843 -1.388240 -0.282758
v -0.379843 -1.388240 0.282758
v 0.379843 -1.388240 -0.282758
v 0.379843 -1.388240 0.282758
v 0.000000 -0.449177 -0.282758
v 0.000000 1.098628 -0.282758
v 0.000000 -0.449177 0.282758
v 0.000000 1.098628 0.282758
v -0.000000 -0.740911 -0.282758
v 0.000000 -0.740911 0.282758
v 0.000000 -1.604017 -0.282758
v -0.000000 -1.604017 0.282758
v 0.000000 -0.639809 -0.282758
v -0.644939 -0.639809 -0.282758
v 0.000000 -0.639809 0.282758
v 0.644939 -0.639809 0.282758
v 0.000000 -1.849187 -0.282758
v -0.644939 -1.705118 -0.282758
v 0.000000 -1.849187 0.282758
v 0.644939 -1.705118 0.282758
v 0.644939 -1.705118 -0.282758
v 0.644939 -0.639809 -0.282758
v -0.644939 -1.705118 0.282758
v -0.644939 -0.639809 0.282758
vn -1.0000 -0.0000 -0.0000
vn -0.0000 -0.0000 -1.0000
vn 1.0000 -0.0000 -0.0000
vn -0.0000 -0.0000 1.0000
vn 0.4658 0.8849 -0.0000
vn -0.0000 1.0000 -0.0000
vn -0.4658 0.8849 -0.0000
vn 0.2180 -0.9759 -0.0000
vn 0.4939 -0.8695 -0.0000
vn 0.4939 0.8695 -0.0000
vn -0.4939 0.8695 -0.0000
vn -0.2180 -0.9759 -0.0000
vn -0.4939 -0.8695 -0.0000
vt 0.375000 0.000000
vt 0.625000 0.000000
vt 0.625000 0.250000
vt 0.375000 0.250000
vt 0.375000 0.375000
vt 0.625000 0.375000
vt 0.625000 0.500000
vt 0.375000 0.500000
vt 0.625000 0.750000
vt 0.375000 0.750000
vt 0.375000 0.875000
vt 0.625000 0.875000
vt 0.625000 1.000000
vt 0.375000 1.000000
vt 0.750000 0.500000
vt 0.875000 0.500000
vt 0.875000 0.750000
vt 0.750000 0.750000
vt 0.250000 0.500000
vt 0.250000 0.750000
vt 0.000000 0.000000
vt 0.125000 0.500000
vt 0.125000 0.750000
vt 0.375000 0.263640
vt 0.375000 0.763640
vt 0.375000 0.263640
vt 0.375000 0.763640
vt 0.375000 0.486360
vt 0.375000 0.986360
s 0
f 77/78/41 78/79/41 80/80/41 79/81/41
f 93/82/42 94/83/42 84/84/42 83/85/42
f 83/85/43 84/84/43 82/86/43 81/87/43
f 95/88/44 96/89/44 78/90/44 77/91/44
f 83/85/45 81/87/45 104/87/45 110/85/45
f 94/92/46 80/93/46 78/94/46 96/95/46
f 110/85/43 104/87/43 108/87/43 109/85/43
f 95/88/44 77/91/44 112/91/44 103/88/44
f 93/82/42 83/85/42 110/85/42 101/82/42
f 77/78/47 79/81/47 102/81/47 112/78/47
f 105/96/48 109/85/48 108/87/48 107/97/48
f 112/78/41 102/81/41 106/81/41 111/78/41
f 85/98/49 97/98/49 98/98/49 86/98/49
f 89/98/43 85/98/43 86/98/43 90/98/43
f 99/98/50 89/98/50 90/98/50 100/98/50
f 91/98/51 99/98/51 100/98/51 92/98/51
f 106/99/52 105/96/52 107/97/52 111/100/52
f 79/81/42 93/82/42 101/82/42 102/81/42
f 81/87/44 95/88/44 103/88/44 104/87/44
f 84/84/46 94/92/46 96/95/46 82/86/46
f 81/87/44 82/86/44 96/89/44 95/88/44
f 79/81/42 80/80/42 94/83/42 93/82/42
f 97/82/42 85/101/42 102/81/42 101/82/42
f 98/88/44 88/102/44 104/87/44 103/88/44
f 89/103/42 99/82/42 105/82/42 106/81/42
f 92/104/44 100/88/44 107/88/44 108/87/44
f 88/102/44 92/104/44 108/87/44 104/87/44
f 91/105/42 87/105/42 110/85/42 109/85/42
f 85/101/42 89/103/42 106/81/42 102/81/42
f 90/106/44 86/106/44 112/91/44 111/91/44
f 87/105/42 97/82/42 101/82/42 110/85/42
f 86/106/44 98/88/44 103/88/44 112/91/44
f 99/82/42 91/105/42 109/85/42 105/82/42
f 100/88/44 90/106/44 111/91/44 107/88/44
f 97/98/53 87/98/53 88/98/53 98/98/53
f 87/98/41 91/98/41 92/98/41 88/98/41
